<?xml version="1.0" standalone="no"?>
<!DOCTYPE svg PUBLIC "-//W3C//DTD SVG 20010904//EN"
 "http://www.w3.org/TR/2001/REC-SVG-20010904/DTD/svg10.dtd">
<svg version="1.0" xmlns="http://www.w3.org/2000/svg"
 width="112.000000pt" height="118.000000pt" viewBox="0 0 112.000000 118.000000"
 preserveAspectRatio="xMidYMid meet">
<metadata>
Created by potrace 1.16, written by Peter Selinger 2001-2019
</metadata>
<g transform="translate(0.000000,118.000000) scale(0.100000,-0.100000)"
fill="#000000" stroke="none">
<path d="M320 796 c0 -9 -8 -16 -20 -16 -11 0 -23 -8 -26 -17 -3 -10 -10 -26
-15 -35 -5 -10 -9 -90 -9 -178 l0 -160 130 0 c80 0 130 -4 130 -10 0 -5 23
-10 50 -10 28 0 50 5 50 10 0 6 50 10 130 10 l130 0 0 160 c0 88 -4 168 -9
178 -5 9 -12 25 -15 35 -3 9 -15 17 -26 17 -12 0 -20 7 -20 16 0 27 -124 15
-188 -18 l-52 -27 -52 27 c-64 33 -188 45 -188 18z m183 -39 l47 -28 0 -160 0
-159 -48 24 c-26 13 -73 27 -105 31 l-57 7 0 160 0 160 58 -4 c40 -3 73 -13
105 -31z m277 -126 l0 -159 -57 -7 c-32 -4 -79 -18 -106 -31 l-47 -23 2 162 3
162 54 28 c37 18 70 27 103 27 l48 0 0 -159z"/>
</g>
</svg>
