<svg version="1.0" xmlns="http://www.w3.org/2000/svg" width="149.333" height="157.333" viewBox="0 0 112 118"><path d="M32 38.4c0 .9-.8 1.6-2 1.6-1.1 0-2.3.8-2.6 1.7-.3 1-1 2.6-1.5 3.5-.5 1-.9 9-.9 17.8v16h13c8 0 13 .4 13 1 0 .5 2.3 1 5 1 2.8 0 5-.5 5-1 0-.6 5-1 13-1h13V63c0-8.8-.4-16.8-.9-17.8-.5-.9-1.2-2.5-1.5-3.5-.3-.9-1.5-1.7-2.6-1.7-1.2 0-2-.7-2-1.6 0-2.7-12.4-1.5-18.8 1.8L56 42.9l-5.2-2.7C44.4 36.9 32 35.7 32 38.4zm18.3 3.9l4.7 2.8V77l-4.8-2.4c-2.6-1.3-7.3-2.7-10.5-3.1l-5.7-.7v-32l5.8.4c4 .3 7.3 1.3 10.5 3.1zM78 54.9v15.9l-5.7.7c-3.2.4-7.9 1.8-10.6 3.1L57 76.9l.2-16.2.3-16.2 5.4-2.8c3.7-1.8 7-2.7 10.3-2.7H78v15.9z"/></svg>